<svg xmlns="http://www.w3.org/2000/svg" style="display: none;">

  <symbol id="icon-inventario" viewBox="0 0 22 18">
    <path
      d="M19.25 4.5L18.625 15.132C18.5913 15.705 18.3399 16.2436 17.9222 16.6373C17.5045 17.031 16.952 17.2502 16.378 17.25H5.622C5.04796 17.2502 4.49555 17.031 4.07783 16.6373C3.66011 16.2436 3.40868 15.705 3.375 15.132L2.75 4.5M9 8.25H13M2.375 4.5H19.625C20.246 4.5 20.75 3.996 20.75 3.375V1.875C20.75 1.254 20.246 0.75 19.625 0.75H2.375C1.754 0.75 1.25 1.254 1.25 1.875V3.375C1.25 3.996 1.754 4.5 2.375 4.5Z"
      stroke="currentColor" stroke-width="1.5" stroke-linecap="round" stroke-linejoin="round"
      fill="none" />
  </symbol>

  <symbol id="icon-dinheiro" viewBox="0 0 22 19">
    <path
      d="M1.25 15.75C6.58561 15.7457 11.898 16.4522 17.047 17.851C17.774 18.049 18.5 17.509 18.5 16.755V15.75M2.75 1.5V2.25C2.75 2.44891 2.67098 2.63968 2.53033 2.78033C2.38968 2.92098 2.19891 3 2 3H1.25M1.25 3V2.625C1.25 2.004 1.754 1.5 2.375 1.5H19.25M1.25 3V12M19.25 1.5V2.25C19.25 2.664 19.586 3 20 3H20.75M19.25 1.5H19.625C20.246 1.5 20.75 2.004 20.75 2.625V12.375C20.75 12.996 20.246 13.5 19.625 13.5H19.25M1.25 12V12.375C1.25 12.6734 1.36853 12.9595 1.5795 13.1705C1.79048 13.3815 2.07663 13.5 2.375 13.5H2.75M1.25 12H2C2.19891 12 2.38968 12.079 2.53033 12.2197C2.67098 12.3603 2.75 12.5511 2.75 12.75V13.5M19.25 13.5V12.75C19.25 12.5511 19.329 12.3603 19.4697 12.2197C19.6103 12.079 19.8011 12 20 12H20.75M19.25 13.5H2.75M14 7.5C14 8.29565 13.6839 9.05871 13.1213 9.62132C12.5587 10.1839 11.7956 10.5 11 10.5C10.2044 10.5 9.44129 10.1839 8.87868 9.62132C8.31607 9.05871 8 8.29565 8 7.5C8 6.70435 8.31607 5.94129 8.87868 5.37868C9.44129 4.81607 10.2044 4.5 11 4.5C11.7956 4.5 12.5587 4.81607 13.1213 5.37868C13.6839 5.94129 14 6.70435 14 7.5ZM17 7.5H17.008V7.508H17V7.5ZM5 7.5H5.008V7.508H5V7.5Z"
      stroke="currentColor" stroke-width="1.5" stroke-linecap="round" stroke-linejoin="round"
      fill="none" />
  </symbol>

  <symbol id="icon-pessoas" viewBox="0 0 24 20">
    <path
      d="M17 19V17C17 15.9391 16.5786 14.9217 15.8284 14.1716C15.0783 13.4214 14.0609 13 13 13H5C3.93913 13 2.92172 13.4214 2.17157 14.1716C1.42143 14.9217 1 15.9391 1 17V19"
      stroke="currentColor" stroke-width="2" stroke-linecap="round" stroke-linejoin="round"
      fill="none" />
    <path
      d="M9 9C11.2091 9 13 7.20914 13 5C13 2.79086 11.2091 1 9 1C6.79086 1 5 2.79086 5 5C5 7.20914 6.79086 9 9 9Z"
      stroke="currentColor" stroke-width="2" stroke-linecap="round" stroke-linejoin="round"
      fill="none" />
    <path
      d="M23 19V17C22.9993 16.1137 22.7044 15.2528 22.1614 14.5523C21.6184 13.8519 20.8581 13.3516 20 13.13"
      stroke="currentColor" stroke-width="2" stroke-linecap="round" stroke-linejoin="round"
      fill="none" />
    <path
      d="M16 1.13C16.8604 1.35031 17.623 1.85071 18.1676 2.55232C18.7122 3.25392 19.0078 4.11683 19.0078 5.005C19.0078 5.89318 18.7122 6.75608 18.1676 7.45769C17.623 8.1593 16.8604 8.6597 16 8.88"
      stroke="currentColor" stroke-width="2" stroke-linecap="round" stroke-linejoin="round"
      fill="none" />
  </symbol>

  <symbol id="icon-home" viewBox="0 0 20 22">
    <path
      d="M7 21V11H13V21M1 8L10 1L19 8V19C19 19.5304 18.7893 20.0391 18.4142 20.4142C18.0391 20.7893 17.5304 21 17 21H3C2.46957 21 1.96086 20.7893 1.58579 20.4142C1.21071 20.0391 1 19.5304 1 19V8Z"
      stroke="currentColor" stroke-width="2" stroke-linecap="round" stroke-linejoin="round"
      fill="none" />
  </symbol>

  <symbol id="icon-pix" viewBox="0 0 24 24">
    <path
      d="M15.0576 16.8975V16.8984C15.3905 17.2326 15.7869 17.4973 16.2227 17.6777C16.3279 17.7213 16.4354 17.7588 16.5439 17.792L13.6875 20.6514C12.7556 21.5832 11.2425 21.5831 10.3105 20.6514L7.5127 17.8535C7.68363 17.8109 7.85212 17.7571 8.01562 17.6895C8.45103 17.5092 8.84611 17.244 9.17871 16.9102L12.124 13.9639L15.0576 16.8975ZM6.64062 8.21777C7.01371 8.21875 7.37193 8.36622 7.63672 8.62891V8.62988L10.6475 11.6406V11.6416C10.7903 11.7852 10.9536 11.9066 11.1309 12.0029C10.9602 12.0932 10.8014 12.2074 10.6592 12.3428L10.6475 12.3545L7.63672 15.3672C7.37617 15.6274 7.01336 15.7773 6.64258 15.7773H5.4375L3.34961 13.6885C2.41725 12.7551 2.41714 11.2423 3.34863 10.3105L5.44043 8.21777H6.64062ZM17.5977 8.23047H18.5703L20.6514 10.3105C21.5829 11.2424 21.5829 12.7547 20.6514 13.6865L18.5723 15.7646H17.5977C17.2276 15.7646 16.864 15.6139 16.6055 15.3545L16.6045 15.3535L13.6035 12.3535L13.5928 12.3428L13.4385 12.209C13.3385 12.1306 13.2315 12.0628 13.1201 12.0039C13.2974 11.9078 13.4606 11.7869 13.6035 11.6436L16.6045 8.64355L16.6055 8.64258C16.8648 8.38236 17.2288 8.23047 17.5977 8.23047ZM11.999 2.65039C12.6322 2.65044 13.2396 2.90117 13.6875 3.34863L16.543 6.20508C16.4346 6.23829 16.3277 6.27776 16.2227 6.32129C15.7877 6.50152 15.3929 6.76611 15.0605 7.09961L12.125 10.0342L9.17871 7.08789C8.71256 6.62186 8.13894 6.29897 7.51367 6.14355L10.3105 3.34863C10.7584 2.90125 11.3659 2.65039 11.999 2.65039Z"
      stroke="currentColor" stroke-width="1.3" fill="none" />
  </symbol>

  <symbol id="icon-adicionar" viewBox="0 0 24 24">
    <path d="M12 5V19M5 12H19" stroke="currentColor" stroke-width="3" stroke-linecap="round"
      stroke-linejoin="round" fill="none" />
  </symbol>

  <symbol id="icon-check" viewBox="0 0 24 24">
    <path d="M20 6L9 17L4 12" stroke="currentColor" stroke-width="2.5" stroke-linecap="round"
      stroke-linejoin="round" fill="none" />
  </symbol>

  <symbol id="icon-card" viewBox="0 0 24 24">
    <path
      d="M2 7.875H21.25M2 8.65H21.25M4.96154 14.075H10.8846M4.96154 16.4H7.92308M4.22115 19.5H19.0288C19.6179 19.5 20.1829 19.255 20.5994 18.819C21.016 18.383 21.25 17.7916 21.25 17.175V6.325C21.25 5.70837 21.016 5.117 20.5994 4.68098C20.1829 4.24495 19.6179 4 19.0288 4H4.22115C3.63207 4 3.06711 4.24495 2.65056 4.68098C2.23401 5.117 2 5.70837 2 6.325V17.175C2 17.7916 2.23401 18.383 2.65056 18.819C3.06711 19.255 3.63207 19.5 4.22115 19.5Z"
      stroke="currentColor" stroke-width="1.5" stroke-linecap="round" stroke-linejoin="round"
      fill="none" />
  </symbol>

  <symbol id="icon-editar" viewBox="0 0 24 24">
    <path
      d="M12 20H20M16 5.54434C16.3536 5.1958 16.8332 5 17.3333 5C17.581 5 17.8262 5.04807 18.0549 5.14147C18.2837 5.23487 18.4916 5.37176 18.6667 5.54434C18.8418 5.71692 18.9807 5.92179 19.0754 6.14728C19.1702 6.37276 19.219 6.61443 19.219 6.85849C19.219 7.10255 19.1702 7.34422 19.0754 7.5697C18.9807 7.79519 18.8418 8.00006 18.6667 8.17264L7.55556 19.1239L4 20L4.88889 16.4956L16 5.54434Z"
      stroke="currentColor" stroke-width="2" stroke-linecap="round" stroke-linejoin="round"
      fill="none" />
  </symbol>

  <symbol id="icon-parcela" viewBox="0 0 24 24">
    <path
      d="M19.5 14.25V11.625C19.5 10.7299 19.1444 9.87145 18.5115 9.23851C17.8786 8.60558 17.0201 8.25 16.125 8.25H14.625C14.3266 8.25 14.0405 8.13147 13.8295 7.9205C13.6185 7.70952 13.5 7.42337 13.5 7.125V5.625C13.5 4.72989 13.1444 3.87145 12.5115 3.23851C11.8785 2.60558 11.0201 2.25 10.125 2.25H8.25M12 11.25V18.75M14.25 12.284C13.1203 11.9931 11.9449 11.9241 10.789 12.081C10.253 12.153 9.815 12.559 9.768 13.098C9.75609 13.2317 9.75008 13.3658 9.75 13.5C9.75 13.964 10.086 14.344 10.525 14.494L13.475 15.506C13.915 15.656 14.25 16.036 14.25 16.5C14.25 16.636 14.244 16.77 14.232 16.902C14.185 17.441 13.747 17.847 13.211 17.919C12.055 18.0743 10.8799 18.0054 9.75 17.716M10.5 2.25H5.625C5.004 2.25 4.5 2.754 4.5 3.375V20.625C4.5 21.246 5.004 21.75 5.625 21.75H18.375C18.996 21.75 19.5 21.246 19.5 20.625V11.25C19.5 8.86305 18.5518 6.57387 16.864 4.88604C15.1761 3.19821 12.8869 2.25 10.5 2.25Z"
      stroke="currentColor" stroke-width="1.5" stroke-linecap="round" stroke-linejoin="round"
      fill="none" />
  </symbol>

  <symbol id="icon-calendar" viewBox="0 0 24 24">
    <path
      d="M6.75 3V5.25M17.25 3V5.25M3 18.75V7.5C3 6.90326 3.23705 6.33097 3.65901 5.90901C4.08097 5.48705 4.65326 5.25 5.25 5.25H18.75C19.3467 5.25 19.919 5.48705 20.341 5.90901C20.7629 6.33097 21 6.90326 21 7.5V18.75M3 18.75C3 19.3467 3.23705 19.919 3.65901 20.341C4.08097 20.7629 4.65326 21 5.25 21H18.75C19.3467 21 19.919 20.7629 20.341 20.341C20.7629 19.919 21 19.3467 21 18.75M3 18.75V11.25C3 10.6533 3.23705 10.081 3.65901 9.65901C4.08097 9.23705 4.65326 9 5.25 9H18.75C19.3467 9 19.919 9.23705 20.341 9.65901C20.7629 10.081 21 10.6533 21 11.25V18.75"
      stroke="currentColor" stroke-width="1.5" stroke-linecap="round" stroke-linejoin="round"
      fill="none" />
  </symbol>

  <symbol id="icon-dropdown" viewBox="0 0 24 24">
    <path d="M8 9L17 9L12.5 15L8 9Z" fill="currentColor" />
  </symbol>

  <symbol id="icon-trash" viewBox="0 0 40 40">
    <path
      d="M22.99 16.7505L22.644 25.7505M17.856 25.7505L17.51 16.7505M27.478 13.5405C27.82 13.5925 28.16 13.6475 28.5 13.7065M27.478 13.5405L26.41 27.4235C26.3664 27.9887 26.1111 28.5167 25.695 28.9018C25.279 29.2868 24.7329 29.5007 24.166 29.5005H16.334C15.7671 29.5007 15.221 29.2868 14.805 28.9018C14.3889 28.5167 14.1336 27.9887 14.09 27.4235L13.022 13.5405M27.478 13.5405C26.3239 13.366 25.1638 13.2336 24 13.1435M13.022 13.5405C12.68 13.5915 12.34 13.6465 12 13.7055M13.022 13.5405C14.1761 13.366 15.3362 13.2336 16.5 13.1435M24 13.1435V12.2275C24 11.0475 23.09 10.0635 21.91 10.0265C20.8036 9.99116 19.6964 9.99116 18.59 10.0265C17.41 10.0635 16.5 11.0485 16.5 12.2275V13.1435M24 13.1435C21.5037 12.9506 18.9963 12.9506 16.5 13.1435"
      stroke="currentColor" stroke-width="1.85" stroke-linecap="round" stroke-linejoin="round"
      fill="none" />
  </symbol>

  <symbol id="icon-identidade" viewBox="0 0 24 24">
    <path
      d="M15.4231 9.2H19.0769M15.4231 12H19.0769M15.4231 14.8H19.0769M5.19231 19H19.8077C20.3891 19 20.9468 18.7788 21.3579 18.3849C21.769 17.9911 22 17.457 22 16.9V7.1C22 6.54305 21.769 6.0089 21.3579 5.61508C20.9468 5.22125 20.3891 5 19.8077 5H5.19231C4.61087 5 4.05325 5.22125 3.64211 5.61508C3.23097 6.0089 3 6.54305 3 7.1V16.9C3 17.457 3.23097 17.9911 3.64211 18.3849C4.05325 18.7788 4.61087 19 5.19231 19ZM11.0385 9.55C11.0385 9.77981 10.9912 10.0074 10.8994 10.2197C10.8076 10.432 10.673 10.6249 10.5034 10.7874C10.3337 10.9499 10.1323 11.0788 9.91067 11.1668C9.68902 11.2547 9.45145 11.3 9.21154 11.3C8.97162 11.3 8.73406 11.2547 8.51241 11.1668C8.29075 11.0788 8.08935 10.9499 7.91971 10.7874C7.75006 10.6249 7.61549 10.432 7.52368 10.2197C7.43187 10.0074 7.38462 9.77981 7.38462 9.55C7.38462 9.08587 7.57709 8.64075 7.91971 8.31256C8.26232 7.98437 8.72701 7.8 9.21154 7.8C9.69607 7.8 10.1608 7.98437 10.5034 8.31256C10.846 8.64075 11.0385 9.08587 11.0385 9.55ZM12.2993 15.4636C11.3486 15.9487 10.2877 16.2016 9.21056 16.2C8.13409 16.2013 7.07389 15.9484 6.12379 15.4636C6.35597 14.8581 6.77656 14.3354 7.32875 13.9662C7.88094 13.597 8.53813 13.399 9.21154 13.399C9.88495 13.399 10.5421 13.597 11.0943 13.9662C11.6465 14.3354 12.0671 14.8581 12.2993 15.4636Z"
      stroke="currentColor" stroke-width="1.5" stroke-linecap="round" stroke-linejoin="round"
      fill="none" />
  </symbol>

  <symbol id="icon-phone" viewBox="0 0 24 24">
    <path
      d="M5 8.46154C5 14.8338 10.1662 20 16.5385 20H18.2692C18.7283 20 19.1685 19.8177 19.4931 19.4931C19.8177 19.1685 20 18.7283 20 18.2692V17.2138C20 16.8169 19.73 16.4708 19.3446 16.3746L15.9423 15.5238C15.6038 15.4392 15.2485 15.5662 15.04 15.8446L14.2938 16.8392C14.0769 17.1285 13.7023 17.2562 13.3631 17.1315C12.1038 16.6686 10.9601 15.9374 10.0114 14.9886C9.06262 14.0399 8.33144 12.8962 7.86846 11.6369C7.74385 11.2977 7.87154 10.9231 8.16077 10.7062L9.15538 9.96C9.43462 9.75154 9.56077 9.39538 9.47615 9.05769L8.62538 5.65538C8.57857 5.46823 8.47055 5.30208 8.3185 5.18334C8.16645 5.06459 7.97908 5.00006 7.78615 5H6.73077C6.27174 5 5.83151 5.18235 5.50693 5.50693C5.18235 5.83151 5 6.27174 5 6.73077V8.46154Z"
      stroke="currentColor" stroke-width="1.5" stroke-linecap="round" stroke-linejoin="round"
      fill="none" />
  </symbol>

  <symbol id="icon-cancel" viewBox="0 0 40 40">
    <path
      d="M14.4 27L13 25.6L18.6 20L13 14.4L14.4 13L20 18.6L25.6 13L27 14.4L21.4 20L27 25.6L25.6 27L20 21.4L14.4 27Z"
      fill="currentColor" />
  </symbol>

  <symbol id="icon-sidebar" viewBox="0 0 23 22">
  <path 
    d="M21.97 14V8C21.97 3 19.97 1 14.97 1H8.96997C3.96997 1 1.96997 3 1.96997 8V14C1.96997 19 3.96997 21 8.96997 21H14.97C19.97 21 21.97 19 21.97 14Z" 
    stroke="currentColor" 
    stroke-width="2" 
    stroke-linecap="round" 
    stroke-linejoin="round" 
    fill="none" 
  />
  <path 
    d="M7.96997 1V21" 
    stroke="currentColor" 
    stroke-width="2" 
    stroke-linecap="round" 
    stroke-linejoin="round" 
    fill="none" 
  />
  <path 
    d="M14.97 8.43994L12.41 10.9999L14.97 13.5599" 
    stroke="currentColor" 
    stroke-width="2" 
    stroke-linecap="round" 
    stroke-linejoin="round" 
    fill="none" 
  />
</symbol>


</svg>